<?xml version="1.0" encoding="UTF-8"?>
<svg width="169px" height="45px" viewBox="0 0 169 45" version="1.1" xmlns="http://www.w3.org/2000/svg" xmlns:xlink="http://www.w3.org/1999/xlink">
    <!-- Generator: Sketch 51.3 (57544) - http://www.bohemiancoding.com/sketch -->
    <title>Group 136 Copy</title>
    <desc>Created with Sketch.</desc>
    <defs>
        <polygon id="path-1" points="0.177683824 0.239558824 41.4652294 0.239558824 41.4652294 44.7914779 0.177683824 44.7914779"></polygon>
    </defs>
    <g id="Page-1" stroke="none" stroke-width="1" fill="none" fill-rule="evenodd">
        <g id="Group-136-Copy">
            <path d="M55.729125,20.9359191 L57.1922868,20.9359191 C59.3086103,20.9359191 60.5302279,19.9009191 60.5302279,18.3292279 C60.5302279,16.7575368 59.4952279,15.8621691 57.6277279,15.8469485 C56.5695662,15.8469485 56.0090515,15.9012132 55.729125,15.9713603 L55.729125,20.9359191 Z M50.1656691,12.1430515 C51.7525809,11.8935662 54.1342721,11.6917279 56.9434632,11.6917279 C60.1569926,11.6917279 62.4599338,12.1351103 64.0395662,13.325625 C65.3862574,14.3526838 66.1095662,15.8469485 66.1095662,17.9010662 C66.1095662,20.5156985 64.1487574,22.3752574 62.5141985,22.9748162 L62.5141985,23.0833456 C63.9072132,23.6829044 64.6622868,25.0209926 65.1989779,26.8421691 C65.8296397,28.974375 66.5218456,32.0244485 66.9268456,32.8337868 L61.1840515,32.8337868 C60.8650809,32.2269485 60.3204485,30.5851103 59.7136103,28.0015809 C59.1451544,25.4881985 58.3748603,24.9667279 56.6397132,24.9667279 L55.729125,24.9667279 L55.729125,32.8337868 L50.1656691,32.8337868 L50.1656691,12.1430515 Z" id="Fill-119" fill="#F8172F"></path>
            <path d="M74.7322279,11.8549191 L74.7322279,23.7607279 C74.7322279,26.9272721 75.8294338,28.7173456 78.0549485,28.7173456 C80.2884044,28.7173456 81.3776691,27.0913897 81.3776691,23.7607279 L81.3776691,11.8549191 L86.9953897,11.8549191 L86.9953897,23.425875 C86.9953897,29.9078603 83.7739191,33.1763162 77.8756103,33.1763162 C72.1407574,33.1763162 69.1138456,30.0249926 69.1138456,23.2935221 L69.1138456,11.8549191 L74.7322279,11.8549191 Z" id="Fill-121" fill="#F8172F"></path>
            <path d="M90.8324338,32.8337206 L90.8324338,11.8551176 L97.4619926,11.8551176 L100.792654,18.2901176 C101.928904,20.3753382 103.157801,23.1845294 104.084272,25.6436471 L104.16964,25.6436471 C103.85861,22.8814412 103.749419,19.9478382 103.749419,16.8117353 L103.749419,11.8551176 L108.885375,11.8551176 L108.885375,32.8337206 L102.955963,32.8337206 L99.3996397,25.8613676 C98.2322868,23.6358529 96.8710368,20.8193824 95.8671397,18.2821765 L95.7579485,18.2821765 C95.8982426,21.1145294 95.9683897,24.2737941 95.9683897,27.6825441 L95.9683897,32.8337206 L90.8324338,32.8337206 Z" id="Fill-123" fill="#F8172F"></path>
            <path d="M112.761331,32.8337206 L112.761331,11.8551176 L119.39089,11.8551176 L122.721551,18.2901176 C123.85714,20.3753382 125.08736,23.1845294 126.013169,25.6436471 L126.098537,25.6436471 C125.787507,22.8814412 125.678316,19.9478382 125.678316,16.8117353 L125.678316,11.8551176 L130.814272,11.8551176 L130.814272,32.8337206 L124.88486,32.8337206 L121.328537,25.8613676 C120.161184,23.6358529 118.799934,20.8193824 117.796037,18.2821765 L117.686846,18.2821765 C117.82714,21.1145294 117.897287,24.2737941 117.897287,27.6825441 L117.897287,32.8337206 L112.761331,32.8337206 Z" id="Fill-125" fill="#F8172F"></path>
            <polygon id="Fill-127" fill="#F8172F" points="147.848559 24.3753088 140.308412 24.3753088 140.308412 28.2426618 148.735324 28.2426618 148.735324 32.8339853 134.690029 32.8339853 134.690029 11.8547206 148.299882 11.8547206 148.299882 16.4460441 140.308412 16.4460441 140.308412 19.8309706 147.848559 19.8309706"></polygon>
            <path d="M157.44375,20.9359191 L158.906912,20.9359191 C161.023235,20.9359191 162.244853,19.9009191 162.244853,18.3292279 C162.244853,16.7575368 161.209853,15.8621691 159.342353,15.8469485 C158.284191,15.8469485 157.723676,15.9012132 157.44375,15.9713603 L157.44375,20.9359191 Z M151.879632,12.1430515 C153.467206,11.8935662 155.848897,11.6917279 158.657426,11.6917279 C161.871618,11.6917279 164.174559,12.1351103 165.754191,13.325625 C167.100221,14.3526838 167.824191,15.8469485 167.824191,17.9010662 C167.824191,20.5156985 165.863382,22.3752574 164.228824,22.9748162 L164.228824,23.0833456 C165.621838,23.6829044 166.376912,25.0209926 166.913603,26.8421691 C167.544265,28.974375 168.236471,32.0244485 168.640809,32.8337868 L162.898676,32.8337868 C162.579044,32.2269485 162.035074,30.5851103 161.427574,28.0015809 C160.859779,25.4881985 160.089485,24.9667279 158.354338,24.9667279 L157.44375,24.9667279 L157.44375,32.8337868 L151.879632,32.8337868 L151.879632,12.1430515 Z" id="Fill-129" fill="#F8172F"></path>
            <g id="Group-133">
                <mask id="mask-2" fill="white">
                    <use xlink:href="#path-1"></use>
                </mask>
                <g id="Clip-132"></g>
                <path d="M36.7514338,20.4219926 C35.9513603,20.4219926 35.3021691,19.7780956 35.3021691,18.9773603 C35.3021691,18.1772868 35.9513603,17.5280956 36.7514338,17.5280956 C37.5515074,17.5280956 38.1960662,18.1772868 38.1960662,18.9773603 C38.1960662,19.7780956 37.5515074,20.4219926 36.7514338,20.4219926 M11.1212868,24.8002279 C11.1212868,21.7805956 13.5671691,19.3347132 16.5815074,19.3347132 C19.6011397,19.3347132 22.0470221,21.7805956 22.0470221,24.8002279 C22.0470221,27.8198603 19.6011397,30.2650809 16.5815074,30.2650809 C13.5671691,30.2650809 11.1212868,27.8198603 11.1212868,24.8002279 M40.111875,16.4381691 L40.1218015,16.4388309 C40.1039338,16.4156691 40.0834191,16.3931691 40.0655515,16.3700074 C39.5076838,15.5361838 38.7923162,14.779125 37.9313603,14.1544191 C35.6085662,12.1320662 32.9436397,10.6444191 32.9436397,10.6444191 C26.2525368,6.91405147 14.5062132,0.239492647 14.5062132,0.239492647 C14.5062132,0.239492647 10.0730515,5.60706618 27.2729779,14.3582426 C26.9281985,14.6672868 26.6158456,15.0054485 26.3511397,15.3773603 C26.0540074,15.7942721 25.4656985,15.8511838 25.0884926,15.5057426 C22.6644485,13.2841985 19.3655515,11.9990515 15.7695221,12.2247132 C9.49533088,12.6178015 4.39511029,17.7299338 4.00996324,24.0047868 C4.00863971,24.0259632 4.00863971,24.0471397 4.00797794,24.0689779 C3.77040441,24.0100809 3.52356618,23.9763309 3.26878676,23.9763309 C1.56143382,23.9763309 0.177683824,25.3600809 0.177683824,27.0667721 C0.177683824,28.774125 1.56143382,30.157875 3.26878676,30.157875 C3.89216912,30.157875 4.47055147,29.9719191 4.95628676,29.6542721 C6.75099265,33.9517721 10.8545956,37.0395662 15.7198897,37.3684632 C13.5327574,42.1358162 16.5841544,44.7914779 16.5841544,44.7914779 C26.3299632,36.2639779 28.3642279,29.4742721 28.7096691,28.2241985 C28.7242279,28.1725809 28.7387868,28.1209632 28.7526838,28.0686838 C28.7579779,28.0488309 28.7626103,28.0329485 28.7659191,28.0243456 C28.7659191,28.0243456 28.7639338,28.0243456 28.7639338,28.0243456 C28.9558456,27.2977279 29.0862132,26.5453015 29.1457721,25.7730221 C29.1775368,25.3600809 29.6076838,25.1172132 29.9835662,25.2905956 C30.4865074,25.5235368 31.0212132,25.7161103 31.5830515,25.8623603 C35.9056985,26.9939779 40.3156985,25.9596397 41.2666544,22.3411103 C41.7609926,20.4517721 41.3162868,18.2732426 40.111875,16.4381691" id="Fill-131" fill="#F8172F" mask="url(#mask-2)"></path>
            </g>
            <path d="M31.0291544,28.6381985 C29.9690074,32.5201103 27.7494485,35.4729044 27.7494485,35.4729044 L39.4547426,32.9145221 C37.0823162,27.3649632 31.0291544,28.6381985 31.0291544,28.6381985" id="Fill-134" fill="#F8172F"></path>
        </g>
    </g>
</svg>