<svg xmlns="http://www.w3.org/2000/svg" width="60" height="60" viewBox="0 0 60 60">
    <g fill="none" fill-rule="evenodd">
        <path fill="#FAC30F" fill-rule="nonzero" d="M44.699 46.527H1.857A1.855 1.855 0 0 1 0 44.673V1.915C0 .892.831.062 1.857.062H44.7c1.026 0 1.857.83 1.857 1.853v42.758a1.855 1.855 0 0 1-1.857 1.854z"/>
        <path fill="#E89F14" fill-rule="nonzero" d="M44.699.062h-21.42v46.465h21.42c1.026 0 1.857-.83 1.857-1.854V1.915A1.855 1.855 0 0 0 44.7.062z"/>
        <path fill="#FF3746" fill-rule="nonzero" d="M14.717 0h16.981v15.849H14.717z"/>
        <g fill-rule="nonzero">
            <path fill="#FF3746" d="M58.758 52.722L50.31 44.29l-.046-.041-5.999 5.987.042.046 8.449 8.433a4.235 4.235 0 0 0 3.002 1.239 4.236 4.236 0 0 0 3.001-7.23z"/>
            <path fill="#DC1E28" d="M58.758 58.714a4.235 4.235 0 0 0 0-5.992L50.31 44.29l-.046-.041-3 2.994 11.495 11.472z"/>
            <path fill="#62E3F8" d="M53.613 47.587l-5.303-5.293c-.014-.014-.03-.027-.045-.04-3.982 4.012-5.968 6.023-5.958 6.032l5.31 5.3 5.996-6z"/>
            <path fill="#00C0F1" d="M50.615 50.586l2.998-3-5.303-5.292c-.014-.014-.03-.027-.045-.04l-3 2.993 5.35 5.34z"/>
        </g>
        <path fill="#E1F6FD" d="M47.142 29.811c-4.787-4.777-12.548-4.777-17.335 0-4.787 4.778-4.787 12.524 0 17.302 4.787 4.777 12.548 4.777 17.335 0 4.787-4.778 4.787-12.524 0-17.302z"/>
        <path fill="#BEEBFA" d="M29.807 29.811l17.336 17.302c4.787-4.778 4.787-12.524 0-17.302-4.787-4.778-12.549-4.778-17.336 0z"/>
        <path fill="#545C64" fill-rule="nonzero" d="M48.456 48.424c-5.503 5.493-14.458 5.493-19.962 0-5.503-5.493-5.503-14.431 0-19.924 5.504-5.493 14.459-5.493 19.962 0 5.504 5.493 5.504 14.43 0 19.924zM31.121 31.122c-4.056 4.047-4.056 10.632 0 14.68 4.055 4.047 10.654 4.047 14.709 0s4.055-10.633 0-14.68c-4.055-4.048-10.654-4.047-14.71 0z"/>
        <path fill="#1E252C" fill-rule="nonzero" d="M28.494 28.5l2.627 2.622c4.055-4.047 10.654-4.047 14.709 0s4.055 10.632 0 14.68l2.626 2.621c5.504-5.492 5.504-14.43 0-19.923-5.503-5.493-14.458-5.493-19.962 0z"/>
    </g>
</svg>
