<svg xmlns="http://www.w3.org/2000/svg" width="58" height="60" viewBox="0 0 58 60">
    <g fill="none" fill-rule="nonzero">
        <path fill="#D3374E" d="M22.435 3.05a1.016 1.016 0 0 1-1.017-1.016V1.017a1.016 1.016 0 1 1 2.034 0v1.017c0 .562-.454 1.017-1.017 1.017z"/>
        <path fill="#FAC30F" d="M22.44 6.1a3.047 3.047 0 0 1 3.05 3.052 3.047 3.047 0 0 1-3.05 3.05 3.047 3.047 0 0 1-3.051-3.05 3.047 3.047 0 0 1 3.05-3.051z"/>
        <path fill="#FF3746" d="M22.44 16.27c-8.319 0-12.927 1.515-15.255 2.705V16.27c0-8.42 6.833-15.254 15.254-15.254 8.42 0 15.255 6.834 15.255 15.254v2.705c-2.33-1.19-6.936-2.705-15.255-2.705zm3.05-7.118A3.047 3.047 0 0 0 22.44 6.1a3.047 3.047 0 0 0-3.051 3.05 3.047 3.047 0 0 0 3.05 3.051 3.047 3.047 0 0 0 3.051-3.05z"/>
        <path fill="#DC1E28" d="M22.44 1.016c-.692 0-1.367.063-2.034.15 7.456.998 13.22 7.374 13.22 15.104v1.22c1.792.467 3.122 1.002 4.068 1.485V16.27c0-8.42-6.835-15.254-15.255-15.254z"/>
        <path fill="#545C64" d="M37.694 18.975c1.473.753 2.034 1.363 2.034 1.363H5.15s.548-.61 2.034-1.363c2.328-1.19 6.936-2.705 15.254-2.705 8.32 0 12.925 1.515 15.255 2.705z"/>
        <path fill="#EAC6BB" d="M37.694 20.338v5.086a15.238 15.238 0 0 1-8.136 13.495 15.228 15.228 0 0 1-7.119 1.759c-2.573 0-4.993-.64-7.118-1.76a15.239 15.239 0 0 1-8.136-13.494v-5.086h30.509z"/>
        <path fill="#D3B1A9" d="M33.626 20.338v5.086a15.238 15.238 0 0 1-13.22 15.115 15.24 15.24 0 0 0 9.153-1.62 15.237 15.237 0 0 0 8.135-13.494v-5.086h-4.068v-.001z"/>
        <path fill="#E89F14" d="M42.774 43.654v.073h-9.152v-.205l3.05-4.624h7.12z"/>
        <path fill="#DC1E28" d="M46.842 38.898l1.017 4.829h-5.085v-.073l1.017-4.756z"/>
        <path fill="#E89F14" d="M53.96 38.898l3.052 4.829h-9.153l-1.017-4.829z"/>
        <path fill="#FF3746" d="M42.774 43.727h5.085v5.085h-5.085z"/>
        <path fill="#FAC30F" d="M57.012 43.727v16.271h-23.39V43.727h9.152v5.085h5.085v-5.085z"/>
        <path fill="#FF3746" d="M33.622 43.727v16.271H1.08a1.02 1.02 0 0 1-1.017-1.017v-7.119a8.136 8.136 0 0 1 8.145-8.135h7.109l4.068 2.034 3.05-1.017 3.051 1.017 4.068-2.034h4.068z"/>
        <path fill="#545C64" d="M29.554 38.918v4.809l-4.068 2.034-3.05-1.017-3.051 1.017-4.068-2.034v-4.81a15.226 15.226 0 0 0 7.118 1.76c2.572 0 4.994-.64 7.12-1.76z"/>
        <path fill="#444D55" d="M29.554 40.75v2.977l-4.068 2.034-3.05-1.017c-.29-1.83-.29-3.185 0-4.067 2.571 0 4.993-.64 7.118-1.76v1.834z"/>
        <path fill="#545C64" d="M22.466 50.844a1.02 1.02 0 0 1-1.022-1.016c0-.563.45-1.017 1.01-1.017h.012a1.016 1.016 0 1 1 0 2.033z"/>
    </g>
</svg>
