<svg xmlns="http://www.w3.org/2000/svg" width="46" height="56" viewBox="0 0 46 56">
    <g fill="none" fill-rule="nonzero">
        <path fill="#545C64" d="M34.362 55.312H1.594a1.395 1.395 0 0 1-1.397-1.397V2.085c0-.782.632-1.397 1.397-1.397h32.768c.782 0 1.398.632 1.398 1.397v51.83c.016.765-.616 1.397-1.398 1.397z"/>
        <path fill="#54C0EB" d="M3.59 7.391h28.793v38.025H3.59z"/>
        <path fill="#E6E9EE" d="M21.521 4.596h-7.07a.71.71 0 0 1-.714-.715c0-.399.316-.715.715-.715h7.07c.398 0 .714.316.714.715a.71.71 0 0 1-.715.715z"/>
        <circle cx="28.108" cy="4.181" r="1.613" fill="#2F3337"/>
        <circle cx="17.978" cy="50.139" r="2.894" fill="#E6E9EE"/>
        <path fill="#FF3746" d="M15 15h31v22H15z"/>
        <path fill="#BE232D" d="M15 37l15.5-15L46 37z"/>
        <path fill="#E6E9EE" d="M15 15h31L30.5 30z"/>
    </g>
</svg>
