<svg xmlns="http://www.w3.org/2000/svg" width="60" height="50" viewBox="0 0 60 50">
    <g fill="none" fill-rule="nonzero">
        <path fill="#B47544" d="M16.406 22.852H0V9.96c0-.971.787-1.758 1.758-1.758h12.89c.971 0 1.758.787 1.758 1.758v12.89z"/>
        <path fill="#BE232D" d="M53.656 32.45l-3.6-21.606-9.416.534 3.6 21.595a1.76 1.76 0 0 0 2.276 1.383l5.406.14a1.758 1.758 0 0 0 1.734-2.047z"/>
        <path fill="#444D55" d="M38.32 8.203h-4.687a1.758 1.758 0 1 1 0-3.515h4.687a1.758 1.758 0 1 1 0 3.515z"/>
        <path fill="#FAC30F" d="M50.04 0h-3.517v12.89h3.516c.971 0 1.758-.786 1.758-1.757V1.758C51.797.787 51.01 0 50.039 0z"/>
        <path fill="#DC1E28" d="M48.281 12.89h-5.175c-3.537 0-6.489-2.808-6.543-6.344A6.452 6.452 0 0 1 43.008 0h5.273v12.89z"/>
        <path fill="#444D55" d="M54.727 39.844c.97 0 1.757.787 1.757 1.758 0 4.2-3.417 7.617-7.617 7.617s-7.617-3.417-7.617-7.617c0-.971.787-1.758 1.758-1.758h11.719z"/>
        <path fill="#C8DCE6" d="M48.867 45.703a4.107 4.107 0 0 1-3.705-2.344h7.41a4.107 4.107 0 0 1-3.705 2.344z"/>
        <path fill="#545C64" d="M22.852 39.844c.97 0 1.757.787 1.757 1.758 0 4.2-3.417 7.617-7.617 7.617s-7.617-3.417-7.617-7.617c0-.971.787-1.758 1.758-1.758h11.719z"/>
        <path fill="#E6F0F5" d="M16.992 45.703a4.107 4.107 0 0 1-3.705-2.344h7.41a4.107 4.107 0 0 1-3.705 2.344z"/>
        <path fill="#FF3746" d="M48.867 30.469c-5.54 0-10.148 4.068-10.993 9.375h-3.89V27.539a6.452 6.452 0 0 0-6.445-6.445h-7.031c-8.723 0-15.82 7.097-15.82 15.82v4.688c0 .97.786 1.757 1.757 1.757h51.797c.971 0 1.758-.787 1.758-1.757 0-6.139-4.994-11.133-11.133-11.133z"/>
        <path fill="#DC1E28" d="M48.867 30.469c-5.54 0-10.148 4.068-10.993 9.375h-3.89V27.539A6.454 6.454 0 0 0 30 21.583V43.36h28.242c.971 0 1.758-.787 1.758-1.757 0-6.139-4.994-11.133-11.133-11.133z"/>
        <path fill="#B0B5C0" d="M16.406 24.61H1.758a1.758 1.758 0 1 1 0-3.516h14.648v3.515z"/>
        <path fill="#545C64" d="M29.883 24.61H14.648c-.97 0-1.757-.788-1.757-1.758v-2.344a6.452 6.452 0 0 1 6.445-6.445h10.547a5.28 5.28 0 0 1 5.273 5.273 5.28 5.28 0 0 1-5.273 5.273z"/>
        <path fill="#444D55" d="M35.156 19.336A5.28 5.28 0 0 0 30 14.066v10.54a5.278 5.278 0 0 0 5.156-5.27z"/>
    </g>
</svg>
